<svg width="35" height="34" viewBox="0 0 35 34" fill="none" xmlns="http://www.w3.org/2000/svg">
<mask id="path-1-inside-1_158_78" fill="white">
<path fill-rule="evenodd" clip-rule="evenodd" d="M29.0277 21.8832L34.0559 16.855L29.0277 11.8945V4.83129L21.9168 4.87957L16.9706 0L12.0238 4.94673L5.02821 4.99422L5.02821 11.9423L0 16.9706L5.02821 21.931L5.02821 28.9942L12.1391 28.9459L17.0854 33.8255L22.0321 28.8788L29.0277 28.8313V21.8832ZM24.9998 17L16.9998 8.99996L8.99976 17L16.9998 25L24.9998 17Z"/>
</mask>
<path fill-rule="evenodd" clip-rule="evenodd" d="M29.0277 21.8832L34.0559 16.855L29.0277 11.8945V4.83129L21.9168 4.87957L16.9706 0L12.0238 4.94673L5.02821 4.99422L5.02821 11.9423L0 16.9706L5.02821 21.931L5.02821 28.9942L12.1391 28.9459L17.0854 33.8255L22.0321 28.8788L29.0277 28.8313V21.8832ZM24.9998 17L16.9998 8.99996L8.99976 17L16.9998 25L24.9998 17Z" fill="#B69047"/>
<path d="M34.0559 16.855L36.1773 18.9763L38.313 16.8405L36.1628 14.7193L34.0559 16.855ZM29.0277 21.8832L26.9063 19.7619L26.0277 20.6406V21.8832H29.0277ZM29.0277 11.8945H26.0277V13.1491L26.9208 14.0302L29.0277 11.8945ZM29.0277 4.83129H32.0277V1.81086L29.0073 1.83136L29.0277 4.83129ZM21.9168 4.87957L19.81 7.01524L20.6946 7.88793L21.9372 7.8795L21.9168 4.87957ZM16.9706 0L19.0774 -2.13567L16.9562 -4.22829L14.8492 -2.12132L16.9706 0ZM12.0238 4.94673L12.0442 7.94666L13.2749 7.9383L14.1452 7.06805L12.0238 4.94673ZM5.02821 4.99422L5.00785 1.99429L2.02822 2.01452L2.02821 4.99422L5.02821 4.99422ZM5.02821 11.9423L7.14953 14.0637L8.02821 13.185L8.02821 11.9423L5.02821 11.9423ZM0 16.9706L-2.12132 14.8492L-4.25709 16.985L-2.10687 19.1062L0 16.9706ZM5.02821 21.931L8.02821 21.931L8.02821 20.6764L7.13508 19.7953L5.02821 21.931ZM5.02821 28.9942L2.02821 28.9942L2.02821 32.0147L5.04858 31.9942L5.02821 28.9942ZM12.1391 28.9459L14.246 26.8103L13.3613 25.9376L12.1187 25.946L12.1391 28.9459ZM17.0854 33.8255L14.9785 35.9612L17.0997 38.0538L19.2067 35.9468L17.0854 33.8255ZM22.0321 28.8788L22.0118 25.8789L20.7811 25.8872L19.9108 26.7575L22.0321 28.8788ZM29.0277 28.8313L29.048 31.8312L32.0277 31.811V28.8313H29.0277ZM16.9998 8.99996L19.1211 6.87865L16.9998 4.75732L14.8784 6.87864L16.9998 8.99996ZM24.9998 17L27.1211 19.1213L29.2424 17L27.1211 14.8787L24.9998 17ZM8.99976 17L6.87844 14.8786L4.75712 17L6.87844 19.1213L8.99976 17ZM16.9998 25L14.8784 27.1213L16.9998 29.2426L19.1211 27.1213L16.9998 25ZM31.9346 14.7336L26.9063 19.7619L31.149 24.0046L36.1773 18.9763L31.9346 14.7336ZM26.9208 14.0302L31.9491 18.9906L36.1628 14.7193L31.1345 9.75882L26.9208 14.0302ZM26.0277 4.83129V11.8945H32.0277V4.83129H26.0277ZM21.9372 7.8795L29.048 7.83122L29.0073 1.83136L21.8965 1.87963L21.9372 7.8795ZM14.8637 2.13567L19.81 7.01524L24.0237 2.74389L19.0774 -2.13567L14.8637 2.13567ZM14.1452 7.06805L19.0919 2.12132L14.8492 -2.12132L9.90252 2.82541L14.1452 7.06805ZM5.04858 7.99415L12.0442 7.94666L12.0035 1.9468L5.00785 1.99429L5.04858 7.99415ZM8.02821 11.9423L8.02821 4.99422L2.02821 4.99422L2.02821 11.9423L8.02821 11.9423ZM2.12132 19.0919L7.14953 14.0637L2.90689 9.82103L-2.12132 14.8492L2.12132 19.0919ZM7.13508 19.7953L2.10687 14.8349L-2.10687 19.1062L2.92134 24.0666L7.13508 19.7953ZM8.02821 28.9942L8.02821 21.931L2.02821 21.931L2.02821 28.9942L8.02821 28.9942ZM12.1187 25.946L5.00785 25.9943L5.04858 31.9942L12.1595 31.9459L12.1187 25.946ZM19.1923 31.6899L14.246 26.8103L10.0322 31.0816L14.9785 35.9612L19.1923 31.6899ZM19.9108 26.7575L14.9641 31.7042L19.2067 35.9468L24.1534 31.0001L19.9108 26.7575ZM29.0073 25.8314L22.0118 25.8789L22.0525 31.8787L29.048 31.8312L29.0073 25.8314ZM26.0277 21.8832V28.8313H32.0277V21.8832H26.0277ZM14.8784 11.1213L22.8784 19.1213L27.1211 14.8787L19.1211 6.87865L14.8784 11.1213ZM11.1211 19.1213L19.1211 11.1213L14.8784 6.87864L6.87844 14.8786L11.1211 19.1213ZM19.1211 22.8787L11.1211 14.8786L6.87844 19.1213L14.8784 27.1213L19.1211 22.8787ZM22.8784 14.8787L14.8784 22.8786L19.1211 27.1213L27.1211 19.1213L22.8784 14.8787Z" fill="#B69047" mask="url(#path-1-inside-1_158_78)"/>
</svg>
