<svg width="35" height="34" viewBox="0 0 35 34" fill="none" xmlns="http://www.w3.org/2000/svg">
<mask id="path-1-inside-1_158_76" fill="white">
<path fill-rule="evenodd" clip-rule="evenodd" d="M29.0277 21.8832L34.0559 16.855L29.0277 11.8945V4.83129L21.9168 4.87957L16.9706 0L12.0238 4.94673L5.02821 4.99422L5.02821 11.9423L0 16.9706L5.02821 21.931L5.02821 28.9942L12.1391 28.9459L17.0854 33.8255L22.0321 28.8788L29.0277 28.8313V21.8832ZM17.7021 9.70227C17.3134 9.31363 16.6861 9.31363 16.2974 9.70227L9.71166 16.2881C9.31927 16.6804 9.31927 17.3195 9.71166 17.7119L16.2975 24.2977C16.6861 24.6863 17.3134 24.6863 17.7021 24.2977L24.2878 17.7119C24.6802 17.3195 24.6802 16.6805 24.2879 16.2881L17.7021 9.70227Z"/>
</mask>
<path fill-rule="evenodd" clip-rule="evenodd" d="M29.0277 21.8832L34.0559 16.855L29.0277 11.8945V4.83129L21.9168 4.87957L16.9706 0L12.0238 4.94673L5.02821 4.99422L5.02821 11.9423L0 16.9706L5.02821 21.931L5.02821 28.9942L12.1391 28.9459L17.0854 33.8255L22.0321 28.8788L29.0277 28.8313V21.8832ZM17.7021 9.70227C17.3134 9.31363 16.6861 9.31363 16.2974 9.70227L9.71166 16.2881C9.31927 16.6804 9.31927 17.3195 9.71166 17.7119L16.2975 24.2977C16.6861 24.6863 17.3134 24.6863 17.7021 24.2977L24.2878 17.7119C24.6802 17.3195 24.6802 16.6805 24.2879 16.2881L17.7021 9.70227Z" fill="#B69047"/>
<path d="M34.0559 16.855L36.1773 18.9763L38.313 16.8405L36.1628 14.7193L34.0559 16.855ZM29.0277 21.8832L26.9063 19.7619L26.0277 20.6406V21.8832H29.0277ZM29.0277 11.8945H26.0277V13.1491L26.9208 14.0302L29.0277 11.8945ZM29.0277 4.83129H32.0277V1.81086L29.0073 1.83136L29.0277 4.83129ZM21.9168 4.87957L19.81 7.01524L20.6946 7.88793L21.9372 7.8795L21.9168 4.87957ZM16.9706 0L19.0774 -2.13567L16.9562 -4.22829L14.8492 -2.12132L16.9706 0ZM12.0238 4.94673L12.0442 7.94666L13.2749 7.9383L14.1452 7.06805L12.0238 4.94673ZM5.02821 4.99422L5.00785 1.99429L2.02822 2.01452L2.02821 4.99422L5.02821 4.99422ZM5.02821 11.9423L7.14953 14.0637L8.02821 13.185L8.02821 11.9423L5.02821 11.9423ZM0 16.9706L-2.12132 14.8492L-4.25709 16.985L-2.10687 19.1062L0 16.9706ZM5.02821 21.931L8.02821 21.931L8.02821 20.6764L7.13508 19.7953L5.02821 21.931ZM5.02821 28.9942L2.02821 28.9942L2.02821 32.0147L5.04858 31.9942L5.02821 28.9942ZM12.1391 28.9459L14.246 26.8103L13.3613 25.9376L12.1187 25.946L12.1391 28.9459ZM17.0854 33.8255L14.9785 35.9612L17.0997 38.0538L19.2067 35.9468L17.0854 33.8255ZM22.0321 28.8788L22.0118 25.8789L20.7811 25.8872L19.9108 26.7575L22.0321 28.8788ZM29.0277 28.8313L29.048 31.8312L32.0277 31.811V28.8313H29.0277ZM16.2974 9.70227L14.1761 7.58095L14.1761 7.58095L16.2974 9.70227ZM17.7021 9.70227L15.5807 11.8236L15.5807 11.8236L17.7021 9.70227ZM9.71166 16.2881L11.833 18.4094L11.833 18.4094L9.71166 16.2881ZM9.71166 17.7119L7.59034 19.8332L7.59034 19.8332L9.71166 17.7119ZM16.2975 24.2977L18.4188 22.1763L18.4188 22.1763L16.2975 24.2977ZM17.7021 24.2977L15.5808 22.1763L15.5808 22.1763L17.7021 24.2977ZM24.2878 17.7119L22.1665 15.5906L22.1665 15.5906L24.2878 17.7119ZM24.2879 16.2881L26.4092 14.1668L26.4092 14.1668L24.2879 16.2881ZM31.9346 14.7336L26.9063 19.7619L31.149 24.0046L36.1773 18.9763L31.9346 14.7336ZM26.9208 14.0302L31.9491 18.9906L36.1628 14.7193L31.1345 9.75882L26.9208 14.0302ZM26.0277 4.83129V11.8945H32.0277V4.83129H26.0277ZM21.9372 7.8795L29.048 7.83122L29.0073 1.83136L21.8965 1.87963L21.9372 7.8795ZM14.8637 2.13567L19.81 7.01524L24.0237 2.74389L19.0774 -2.13567L14.8637 2.13567ZM14.1452 7.06805L19.0919 2.12132L14.8492 -2.12132L9.90252 2.82541L14.1452 7.06805ZM5.04858 7.99415L12.0442 7.94666L12.0035 1.9468L5.00785 1.99429L5.04858 7.99415ZM8.02821 11.9423L8.02821 4.99422L2.02821 4.99422L2.02821 11.9423L8.02821 11.9423ZM2.12132 19.0919L7.14953 14.0637L2.90689 9.82103L-2.12132 14.8492L2.12132 19.0919ZM7.13508 19.7953L2.10687 14.8349L-2.10687 19.1062L2.92134 24.0666L7.13508 19.7953ZM8.02821 28.9942L8.02821 21.931L2.02821 21.931L2.02821 28.9942L8.02821 28.9942ZM12.1187 25.946L5.00785 25.9943L5.04858 31.9942L12.1595 31.9459L12.1187 25.946ZM19.1923 31.6899L14.246 26.8103L10.0322 31.0816L14.9785 35.9612L19.1923 31.6899ZM19.9108 26.7575L14.9641 31.7042L19.2067 35.9468L24.1534 31.0001L19.9108 26.7575ZM29.0073 25.8314L22.0118 25.8789L22.0525 31.8787L29.048 31.8312L29.0073 25.8314ZM26.0277 21.8832V28.8313H32.0277V21.8832H26.0277ZM18.4188 11.8236C17.6358 12.6065 16.3637 12.6065 15.5807 11.8236L19.8234 7.58096C18.2632 6.02073 15.7363 6.02074 14.1761 7.58095L18.4188 11.8236ZM11.833 18.4094L18.4188 11.8236L14.1761 7.58095L7.59034 14.1667L11.833 18.4094ZM11.833 15.5905C12.6122 16.3697 12.6122 17.6302 11.833 18.4094L7.59034 14.1667C6.02638 15.7307 6.02637 18.2692 7.59034 19.8332L11.833 15.5905ZM18.4188 22.1763L11.833 15.5905L7.59034 19.8332L14.1761 26.419L18.4188 22.1763ZM15.5808 22.1763C16.3637 21.3934 17.6359 21.3934 18.4188 22.1763L14.1761 26.419C15.7364 27.9792 18.2632 27.9792 19.8234 26.419L15.5808 22.1763ZM22.1665 15.5906L15.5808 22.1763L19.8234 26.419L26.4092 19.8332L22.1665 15.5906ZM22.1665 18.4094C21.3874 17.6302 21.3873 16.3698 22.1665 15.5906L26.4092 19.8332C27.9731 18.2693 27.9731 15.7307 26.4092 14.1668L22.1665 18.4094ZM15.5807 11.8236L22.1665 18.4094L26.4092 14.1668L19.8234 7.58096L15.5807 11.8236Z" fill="#B69047" mask="url(#path-1-inside-1_158_76)"/>
</svg>
