<svg width="860" height="122" viewBox="0 0 860 122" fill="none" xmlns="http://www.w3.org/2000/svg">
    <path d="M859.3 50L475 50" stroke="#B69047" stroke-width="4"/>
    <path d="M859.3 71.9103L475 71.9103" stroke="#B69047" stroke-width="4"/>
    <path d="M384.3 71.9103L-0.000161052 71.9103" stroke="#B69047" stroke-width="4"/>
    <path d="M384.3 50L-0.000161052 50" stroke="#B69047" stroke-width="4"/>
    <path d="M411 43L400 32H320L302 50" stroke="#B69047" stroke-width="4"/>
    <path d="M448 43L459 32H539L557 50" stroke="#B69047" stroke-width="4"/>
    <path d="M448 79L459 90H539L557 72" stroke="#B69047" stroke-width="4"/>
    <path d="M411 79L400 90H320L302 72" stroke="#B69047" stroke-width="4"/>
    <rect y="2.12851" width="67.2427" height="67.2427" transform="matrix(0.704702 0.709503 -0.704702 0.709503 431 0.618326)" stroke="#B69047" stroke-width="4"/>
    <rect y="2.12851" width="18.2693" height="18.2693" transform="matrix(0.704702 0.709503 -0.704702 0.709503 430.971 47.995)" fill="#B69047" stroke="#B69047" stroke-width="4"/>
    <rect y="2.12851" width="67.2427" height="67.2427" transform="matrix(0.704702 0.709503 -0.704702 0.709503 431 22.6183)" stroke="#B69047" stroke-width="4"/>
</svg>
